<svg id="CONTENT" xmlns="http://www.w3.org/2000/svg" xmlns:xlink="http://www.w3.org/1999/xlink" width="44" height="44" viewBox="0 0 44 44">
  <defs>
    <style>
      .cls-1 {
        fill-rule: evenodd;
        filter: url(#filter);
      }
    </style>
    <filter id="filter" x="0" y="0" width="44" height="44" filterUnits="userSpaceOnUse">
      <feFlood result="flood" flood-color="#c7b299"/>
      <feComposite result="composite" operator="in" in2="SourceGraphic"/>
      <feBlend result="blend" in2="SourceGraphic"/>
    </filter>
  </defs>
  <g id="Counters">
    <g id="Likes">
      <path id="icon" class="cls-1" d="M30.25,0c-0.424,0-.847.026-1.268,0.064-0.154.014-.306,0.036-0.459,0.057-0.258.031-.513,0.07-0.768,0.117Q27.473,0.29,27.2.352c-0.211.048-.42,0.1-0.63,0.162s-0.4.109-.591,0.172c-0.177.058-.349,0.127-0.524,0.193a14.082,14.082,0,0,0-1.343.583c-0.086.042-.176,0.081-0.26,0.127-0.228.121-.449,0.255-0.671,0.387C23.063,2.05,22.94,2.12,22.819,2.2c-0.215.137-.422,0.285-0.628,0.433-0.062.046-.128,0.086-0.192,0.132A13.736,13.736,0,0,0,0,13.75c0,12.445,8,23.7,21.406,30.113a1.36,1.36,0,0,0,1.188,0C36,37.452,44,26.194,44,13.75A13.765,13.765,0,0,0,30.25,0ZM22,41.1C9.934,35.108,2.75,24.927,2.75,13.75A10.971,10.971,0,0,1,19.94,4.683,13.672,13.672,0,0,0,16.5,13.75a1.375,1.375,0,0,0,2.75,0,10.964,10.964,0,0,1,3.724-8.227c0.211-.189.431-0.366,0.654-0.536,0.051-.036.1-0.075,0.152-0.113,0.219-.159.443-0.312,0.673-0.454,0.063-.04.126-0.079,0.191-0.117,0.221-.133.448-0.257,0.678-0.373,0.079-.04.161-0.079,0.242-0.117,0.22-.1.443-0.2,0.67-0.293,0.1-.04.2-0.076,0.3-0.113,0.214-.077.428-0.149,0.646-0.213,0.133-.037.262-0.071,0.395-0.1,0.2-.049.392-0.1,0.594-0.14,0.181-.033.365-0.058,0.548-0.084,0.156-.024.311-0.05,0.47-0.066,0.349-.033.7-0.054,1.061-0.054a11.013,11.013,0,0,1,11,11C41.25,24.927,34.066,35.108,22,41.1ZM30.25,5.5a1.375,1.375,0,1,0,0,2.75,5.505,5.505,0,0,1,5.5,5.5,1.375,1.375,0,0,0,2.75,0A8.259,8.259,0,0,0,30.25,5.5Z"/>
    </g>
  </g>
</svg>
