<svg id="CONTENT" xmlns="http://www.w3.org/2000/svg" xmlns:xlink="http://www.w3.org/1999/xlink" width="48" height="44" viewBox="0 0 48 44">
  <defs>
    <style>
      .cls-1 {
        fill-rule: evenodd;
        filter: url(#filter);
      }
    </style>
    <filter id="filter" x="0" y="0" width="48" height="44" filterUnits="userSpaceOnUse">
      <feFlood result="flood" flood-color="#c7b299"/>
      <feComposite result="composite" operator="in" in2="SourceGraphic"/>
      <feBlend result="blend" in2="SourceGraphic"/>
    </filter>
  </defs>
  <g id="Counters">
    <g id="Cups_of_coffee_consumed" data-name="Cups of coffee consumed">
      <path id="icon" class="cls-1" d="M46.043,42.748A1.243,1.243,0,0,1,44.809,44H1.234a1.251,1.251,0,0,1,0-2.5H44.809A1.243,1.243,0,0,1,46.043,42.748ZM21.769,22.213a1.223,1.223,0,0,0,1.744-.061,1.263,1.263,0,0,0-.06-1.768c-2.116-2-1.663-6.07.155-8.369,2.467-3.121,3.01-8.684-.155-11.678A1.223,1.223,0,0,0,21.709.4a1.263,1.263,0,0,0,.061,1.768c1.9,1.8,1.858,5.822-.087,8.283a10.17,10.17,0,0,0-2.1,5.947A7.581,7.581,0,0,0,21.769,22.213ZM48,19.614v2.4a6.2,6.2,0,0,1-6.154,6.239H39.091A13.513,13.513,0,0,1,26.405,37.3H19.639A13.585,13.585,0,0,1,6.163,23.642V11.232A1.243,1.243,0,0,1,7.4,9.981h7.915c1.607-2.476,1.535-6.127-.249-7.815A1.263,1.263,0,0,1,15,.4,1.222,1.222,0,0,1,16.747.337c3.164,2.993,2.622,8.557.155,11.677-1.819,2.3-2.272,6.368-.155,8.369a1.263,1.263,0,0,1,.06,1.768,1.223,1.223,0,0,1-1.744.062A7.583,7.583,0,0,1,12.879,16.4a10.408,10.408,0,0,1,.881-3.914H8.63v11.16A11.1,11.1,0,0,0,19.639,34.8h6.767A11.1,11.1,0,0,0,37.413,23.642V12.483H28.135a1.251,1.251,0,0,1,0-2.5H38.647a1.243,1.243,0,0,1,1.234,1.251v2.143h1.965A6.2,6.2,0,0,1,48,19.614Zm-2.468,0a3.716,3.716,0,0,0-3.686-3.737H39.881v9.875h1.965a3.716,3.716,0,0,0,3.686-3.737v-2.4Z"/>
    </g>
  </g>
</svg>
